# xmcd
#
# Track frame offsets: 
#        150
#        17637
#        34815
#        53562
#        71641
#        89894
#        108457
#        126238
#        143576
#        160571
#        175237
#        193332
#        213807
#        236988
#        253155
#
# Disc length: 3626 seconds
#
# Revision: 1
# Processed by: cddbd v1.5.2PL0 Copyright (c) Steve Scherf et al.
# Submitted via: ExactAudioCopy v0.95a4
#
DISCID=d90e280f
DTITLE=Black Stone Cherry - Kentucky
DYEAR=2016
DGENRE=Post-Grunge
TTITLE0=The Way Of The Future
TTITLE1=In Our Dreams
TTITLE2=Shakin' My Cage
TTITLE3=Soul Machine
TTITLE4=Long Ride
TTITLE5=War
TTITLE6=Hangman
TTITLE7=Cheaper To Drink Alone
TTITLE8=Rescue Me
TTITLE9=Feelin' Fuzzy
TTITLE10=Darkest Secret
TTITLE11=Born To Die
TTITLE12=The Rambler
TTITLE13=I Am The Lion
TTITLE14=Evil
EXTD=
EXTT0=
EXTT1=
EXTT2=
EXTT3=
EXTT4=
EXTT5=
EXTT6=
EXTT7=
EXTT8=
EXTT9=
EXTT10=
EXTT11=
EXTT12=
EXTT13=
EXTT14=
PLAYORDER=
